<svg xmlns="http://www.w3.org/2000/svg" viewBox="0 0 1024 1024"><defs><style>.cls-1{isolation:isolate;}.cls-2{fill:#363f52;}.cls-3{fill:#e85153;}.cls-4{fill:#e7e7e7;}.cls-5{fill:#1b222d;}.cls-6,.cls-7,.cls-8{fill:none;stroke-width:11.28px;}.cls-15,.cls-6,.cls-7,.cls-8,.cls-9{stroke:#fff;stroke-miterlimit:10;}.cls-7,.cls-8,.cls-9{stroke-linecap:round;}.cls-8{stroke-dasharray:22.12 22.12;}.cls-9{fill:#057ea2;stroke-width:14.67px;}.cls-10{opacity:0.4;mix-blend-mode:multiply;}.cls-11{fill:#595959;}.cls-12{fill:#fff;}.cls-13{fill:#37a8e0;}.cls-14{fill:#74d7ff;}.cls-15{fill:#f29100;stroke-width:6.77px;}.cls-16{fill:#138b37;}.cls-17{fill:#3faa34;}.cls-18{fill:#3a4961;}</style></defs><g class="cls-1"><g id="Layer_1" data-name="Layer 1"><rect class="cls-2" x="381.81" y="123.47" width="384.91" height="777.05" rx="48.59"/><rect class="cls-3" x="404.69" y="213.2" width="339.14" height="597.61"/><circle class="cls-4" cx="574.15" cy="850.61" r="23.7"/><circle class="cls-4" cx="508.51" cy="172.49" r="3.97"/><rect class="cls-4" x="538.45" y="170.09" width="77.44" height="4.86" rx="2.43"/><path class="cls-5" d="M766.62,837.44v12.67a50.49,50.49,0,0,1-50.53,50.46l-283.89-.09A50.49,50.49,0,0,1,381.69,850V837.32a50.49,50.49,0,0,0,50.5,50.49l283.89.09A50.49,50.49,0,0,0,766.62,837.44Z"/><circle class="cls-6" cx="573.17" cy="497.18" r="70.62"/><path class="cls-7" d="M639.53,464l10-5.3"/><path class="cls-8" d="M669,448.34l185.55-98.66"/><path class="cls-7" d="M864.34,344.49l10-5.3"/><path class="cls-7" d="M639.53,543.63l10,5.29"/><path class="cls-8" d="M669,559.31,854.58,658"/><path class="cls-7" d="M864.34,663.16l10,5.3"/><path class="cls-9" d="M537.88,497.18h70.59"/><path class="cls-9" d="M573.17,461.88v70.59"/><g class="cls-10"><rect class="cls-11" x="48.78" y="291.12" width="387.88" height="262.15" transform="translate(-145.73 128.48) rotate(-23.01)"/></g><rect class="cls-12" x="44.27" y="286.61" width="387.88" height="262.15" transform="translate(-144.33 126.36) rotate(-23.01)"/><path class="cls-13" d="M453.6,468.61,152.67,596.43l-4.38-10.31q37.5-87.42,75.05-174.85c7.38-17.14,28.81-25.94,46-18.81l169.72,70.15Q446.34,465.61,453.6,468.61Z"/><path class="cls-14" d="M391.64,494.93,111.22,614a.3.3,0,0,1-.39-.16L72.45,523.52l44.72-104.18c7.39-17.15,28.83-25.95,46-18.82Q248,435.61,332.9,470.68,362.29,482.79,391.64,494.93Z"/><path class="cls-15" d="M960,713.79,988.64,753a77.71,77.71,0,0,1-31.84,13.18c-27.27,4.56-48.52-7.3-54.8-11.13q15.09-20.62,30.19-41.23"/><path class="cls-15" d="M977.45,684.32a32.53,32.53,0,1,1-32.53-32.52A32.52,32.52,0,0,1,977.45,684.32Z"/><path class="cls-15" d="M959.55,325.93l28.69,39.18a77.59,77.59,0,0,1-31.83,13.18c-27.28,4.56-48.53-7.3-54.81-11.14l30.19-41.22"/><path class="cls-15" d="M977.05,296.46a32.53,32.53,0,1,1-32.53-32.52A32.52,32.52,0,0,1,977.05,296.46Z"/><circle class="cls-6" cx="944.92" cy="309.83" r="70.62"/><circle class="cls-6" cx="944.92" cy="697.51" r="70.62"/><g class="cls-10"><rect class="cls-11" x="219.19" y="507.47" width="175.98" height="260.38" transform="translate(-395.74 720.62) rotate(-71.01)"/></g><rect class="cls-12" x="214.67" y="502.96" width="175.98" height="260.38" transform="translate(-394.51 713.31) rotate(-71.01)"/><path class="cls-16" d="M387.23,755.3,179.7,683.89l2.45-7.11,116-53.51c11.38-5.24,26,0,31.4,11.28l53.15,111.24Z"/><path class="cls-17" d="M344.5,740.6,151.11,674.05a.21.21,0,0,1-.12-.25l21.44-62.31,69.11-31.89c11.39-5.23,26,0,31.4,11.29q26.57,55.59,53.15,111.23Q335.32,721.35,344.5,740.6Z"/><path class="cls-18" d="M584.25,858.84c-1.43.23-3.7,1.63-5,2.24s-2.76,1.32-4.43.8c-.73-.23-1.93-.89-2-1.8s1-1.75,3.21-3.53c.47-.39.63-.5.88-.7,1.16-.93,4.09-3.27,4.05-6.31a5.16,5.16,0,0,0-2.62-4.51,5,5,0,0,0-3.41-.27,7.49,7.49,0,0,0-2.88,1.6,14.72,14.72,0,0,0-4.11,4.84,11.38,11.38,0,0,0-1.56,5.19,10.29,10.29,0,0,0,.9,4.68,8.71,8.71,0,0,0,2.79,3.54,9,9,0,0,0,3.36,1.49,11.37,11.37,0,0,0,4.27.17,12.65,12.65,0,0,0,6.62-3.27c1.82-1.52,1.87-2.26,1.82-2.61a2,2,0,0,0-1.28-1.52A1.68,1.68,0,0,0,584.25,858.84Zm-13.47-2.63c-.71-.51.25-3.74,2.31-5.53.64-.56,1.95-1.51,2.49-1.12s-.05,2.3-.1,2.44a6,6,0,0,1-1.43,2.14C573.42,854.78,571.42,856.66,570.78,856.21Z"/><rect class="cls-18" x="567.93" y="834.48" width="3" height="8.74" rx="1.48" transform="translate(-293.67 306.89) rotate(-24.18)"/><rect class="cls-18" x="574.66" y="833.03" width="3" height="8.74" rx="1.48" transform="translate(87.83 -54.08) rotate(5.82)"/><rect class="cls-18" x="562.7" y="838.4" width="3" height="8.74" rx="1.48" transform="translate(1577.77 878.45) rotate(125.82)"/><rect class="cls-18" x="560.31" y="844.41" width="3" height="8.74" rx="1.48" transform="translate(1479.49 408.41) rotate(97.87)"/><rect class="cls-18" x="580.74" y="835.23" width="3" height="8.74" rx="1.48" transform="translate(564.89 -181.98) rotate(33.77)"/></g></g></svg>